<svg xmlns="http://www.w3.org/2000/svg" viewBox="0 0 48 48">
  <path fill="#FFC107" d="M43.611,20.083H42V20H24v8h11.303c-1.649,4.657-6.08,8-11.303,8c-6.627,0-12-5.373-12-12c0-6.627,5.373-12,12-12c3.059,0,5.842,1.154,8,3.029l5.479-5.479C34.646,6.532,29.684,4,24,4C12.955,4,4,12.955,4,24c0,11.045,8.955,20,20,20c11.045,0,20-8.955,20-20C44,22.659,43.862,21.35,43.611,20.083z"/>
  <path fill="#FF3D00" d="M6.306,14.691l-1.414,1.414C4.21,17.096,4,20.444,4,24c0,3.556,0.21,6.904,0.892,9.895l1.414,1.414C7.94,32.659,8,28.35,8,24c0-4.35,0-8.659-1.694-9.309z"/>
  <path fill="#4CAF50" d="M24,44c5.166,0,9.86-1.977,13.409-5.192l-6.19-5.238C29.211,35.091,26.715,36,24,36c-5.202,0-9.619-3.317-11.283-7.946l-1.414,1.414C10.095,38.003,16.145,44,24,44z"/>
  <path fill="#1976D2" d="M43.611,20.083H42V20H24v8h11.303c-0.792,2.237-2.231,4.166-4.087,5.571c0.001-0.001,0.002-0.002,0.002-0.002l-1.414,1.414C33.45,35.104,36.955,37.914,40.04,40.083l1.391-1.391C42.907,36.232,44,30.455,44,24C44,22.659,43.862,21.35,43.611,20.083z"/>
</svg>
